<svg width="32" height="32" viewBox="0 0 32 32" fill="none" xmlns="http://www.w3.org/2000/svg">
  <defs>
    <linearGradient id="brain-gradient" x1="0%" y1="0%" x2="100%" y2="100%">
      <stop offset="0%" style="stop-color:#3B82F6;stop-opacity:1" />
      <stop offset="100%" style="stop-color:#8B5CF6;stop-opacity:1" />
    </linearGradient>
  </defs>
  <rect width="32" height="32" rx="8" fill="url(#brain-gradient)"/>
  <path d="M8 12c0-2.5 2-4.5 4.5-4.5S17 9.5 17 12c0 1-0.3 1.9-0.8 2.7 0.5 0.8 0.8 1.7 0.8 2.8 0 2.5-2 4.5-4.5 4.5S8 20 8 17.5c0-1.1 0.4-2.1 1-2.8C8.4 13.9 8 13 8 12z" fill="white" opacity="0.9"/>
  <path d="M15 12c0-2.5 2-4.5 4.5-4.5S24 9.5 24 12c0 1-0.3 1.9-0.8 2.7 0.5 0.8 0.8 1.7 0.8 2.8 0 2.5-2 4.5-4.5 4.5S15 20 15 17.5c0-1.1 0.4-2.1 1-2.8-0.6-0.8-1-1.7-1-2.7z" fill="white" opacity="0.9"/>
  <circle cx="12.5" cy="12" r="1" fill="url(#brain-gradient)"/>
  <circle cx="19.5" cy="12" r="1" fill="url(#brain-gradient)"/>
  <circle cx="12.5" cy="17.5" r="0.8" fill="url(#brain-gradient)"/>
  <circle cx="19.5" cy="17.5" r="0.8" fill="url(#brain-gradient)"/>
</svg>